<mxfile host="Electron" agent="Mozilla/5.0 (Macintosh; Intel Mac OS X 10_15_7) AppleWebKit/537.36 (KHTML, like Gecko) draw.io/27.0.9 Chrome/134.0.6998.205 Electron/35.4.0 Safari/537.36" version="27.0.9">
  <diagram name="ページ1" id="5FGJfQFjaagIiJea3g4M">
    <mxGraphModel dx="501" dy="386" grid="1" gridSize="10" guides="1" tooltips="1" connect="1" arrows="1" fold="1" page="1" pageScale="1" pageWidth="827" pageHeight="1169" math="0" shadow="0">
      <root>
        <mxCell id="0" />
        <mxCell id="1" parent="0" />
        <mxCell id="zHXb9KJll9ETnAXT00RL-1" value="" style="endArrow=none;html=1;rounded=0;strokeWidth=16;fillColor=#ffe6cc;strokeColor=#d79b00;" edge="1" parent="1">
          <mxGeometry width="50" height="50" relative="1" as="geometry">
            <mxPoint x="400" y="560" as="sourcePoint" />
            <mxPoint x="400" y="240" as="targetPoint" />
          </mxGeometry>
        </mxCell>
        <mxCell id="zHXb9KJll9ETnAXT00RL-2" value="" style="endArrow=none;html=1;rounded=0;strokeWidth=14;fillColor=#ffe6cc;strokeColor=#d79b00;" edge="1" parent="1" source="zHXb9KJll9ETnAXT00RL-3">
          <mxGeometry width="50" height="50" relative="1" as="geometry">
            <mxPoint x="280" y="280" as="sourcePoint" />
            <mxPoint x="520" y="280" as="targetPoint" />
          </mxGeometry>
        </mxCell>
        <mxCell id="zHXb9KJll9ETnAXT00RL-4" value="" style="endArrow=none;html=1;rounded=0;strokeWidth=14;fillColor=#ffe6cc;strokeColor=#d79b00;" edge="1" parent="1" target="zHXb9KJll9ETnAXT00RL-3">
          <mxGeometry width="50" height="50" relative="1" as="geometry">
            <mxPoint x="280" y="280" as="sourcePoint" />
            <mxPoint x="520" y="280" as="targetPoint" />
          </mxGeometry>
        </mxCell>
        <mxCell id="zHXb9KJll9ETnAXT00RL-3" value="" style="ellipse;whiteSpace=wrap;html=1;aspect=fixed;fillColor=#ffe6cc;strokeColor=#d79b00;strokeWidth=12;" vertex="1" parent="1">
          <mxGeometry x="390" y="270" width="20" height="20" as="geometry" />
        </mxCell>
        <mxCell id="zHXb9KJll9ETnAXT00RL-5" value="" style="endArrow=none;html=1;rounded=0;strokeWidth=6;fillColor=#ffe6cc;strokeColor=#d79b00;" edge="1" parent="1">
          <mxGeometry width="50" height="50" relative="1" as="geometry">
            <mxPoint x="230" y="480" as="sourcePoint" />
            <mxPoint x="280" y="280" as="targetPoint" />
          </mxGeometry>
        </mxCell>
        <mxCell id="zHXb9KJll9ETnAXT00RL-6" value="" style="endArrow=none;html=1;rounded=0;strokeWidth=6;fillColor=#ffe6cc;strokeColor=#d79b00;" edge="1" parent="1">
          <mxGeometry width="50" height="50" relative="1" as="geometry">
            <mxPoint x="330" y="480" as="sourcePoint" />
            <mxPoint x="280" y="280" as="targetPoint" />
          </mxGeometry>
        </mxCell>
        <mxCell id="zHXb9KJll9ETnAXT00RL-8" value="" style="verticalLabelPosition=bottom;verticalAlign=top;html=1;shape=mxgraph.basic.arc;startAngle=0.3609931914745253;endAngle=0.6368873986951256;fillColor=#ffe6cc;strokeColor=#d79b00;strokeWidth=10;" vertex="1" parent="1">
          <mxGeometry x="220" y="451" width="120" height="33" as="geometry" />
        </mxCell>
        <mxCell id="zHXb9KJll9ETnAXT00RL-9" value="" style="endArrow=none;html=1;rounded=0;strokeWidth=8;fillColor=#ffe6cc;strokeColor=#d79b00;" edge="1" parent="1">
          <mxGeometry width="50" height="50" relative="1" as="geometry">
            <mxPoint x="230" y="478" as="sourcePoint" />
            <mxPoint x="330" y="478" as="targetPoint" />
          </mxGeometry>
        </mxCell>
        <mxCell id="zHXb9KJll9ETnAXT00RL-11" value="効率性" style="rounded=0;whiteSpace=wrap;html=1;fillColor=#a0522d;strokeColor=#6D1F00;fontColor=#ffffff;" vertex="1" parent="1">
          <mxGeometry x="250" y="444" width="60" height="30" as="geometry" />
        </mxCell>
        <mxCell id="zHXb9KJll9ETnAXT00RL-12" value="" style="endArrow=none;html=1;rounded=0;strokeWidth=6;fillColor=#ffe6cc;strokeColor=#d79b00;" edge="1" parent="1">
          <mxGeometry width="50" height="50" relative="1" as="geometry">
            <mxPoint x="470" y="480" as="sourcePoint" />
            <mxPoint x="520" y="280" as="targetPoint" />
          </mxGeometry>
        </mxCell>
        <mxCell id="zHXb9KJll9ETnAXT00RL-13" value="" style="endArrow=none;html=1;rounded=0;strokeWidth=6;fillColor=#ffe6cc;strokeColor=#d79b00;" edge="1" parent="1">
          <mxGeometry width="50" height="50" relative="1" as="geometry">
            <mxPoint x="570" y="480" as="sourcePoint" />
            <mxPoint x="520" y="280" as="targetPoint" />
          </mxGeometry>
        </mxCell>
        <mxCell id="zHXb9KJll9ETnAXT00RL-14" value="" style="verticalLabelPosition=bottom;verticalAlign=top;html=1;shape=mxgraph.basic.arc;startAngle=0.3609931914745253;endAngle=0.6368873986951256;fillColor=#ffe6cc;strokeColor=#d79b00;strokeWidth=10;" vertex="1" parent="1">
          <mxGeometry x="460" y="451" width="120" height="33" as="geometry" />
        </mxCell>
        <mxCell id="zHXb9KJll9ETnAXT00RL-15" value="" style="endArrow=none;html=1;rounded=0;strokeWidth=8;fillColor=#ffe6cc;strokeColor=#d79b00;" edge="1" parent="1">
          <mxGeometry width="50" height="50" relative="1" as="geometry">
            <mxPoint x="470" y="478" as="sourcePoint" />
            <mxPoint x="570" y="478" as="targetPoint" />
          </mxGeometry>
        </mxCell>
        <mxCell id="zHXb9KJll9ETnAXT00RL-16" value="徹底性" style="rounded=0;whiteSpace=wrap;html=1;fillColor=#a0522d;strokeColor=#6D1F00;fontColor=#ffffff;" vertex="1" parent="1">
          <mxGeometry x="490" y="444" width="60" height="30" as="geometry" />
        </mxCell>
        <mxCell id="zHXb9KJll9ETnAXT00RL-17" value="" style="endArrow=none;html=1;rounded=0;strokeWidth=14;fillColor=#ffe6cc;strokeColor=#d79b00;" edge="1" parent="1">
          <mxGeometry width="50" height="50" relative="1" as="geometry">
            <mxPoint x="345" y="560" as="sourcePoint" />
            <mxPoint x="455" y="560" as="targetPoint" />
          </mxGeometry>
        </mxCell>
        <mxCell id="zHXb9KJll9ETnAXT00RL-18" value="" style="endArrow=none;html=1;rounded=0;strokeWidth=14;fillColor=#ffe6cc;strokeColor=#d79b00;" edge="1" parent="1">
          <mxGeometry width="50" height="50" relative="1" as="geometry">
            <mxPoint x="330" y="570" as="sourcePoint" />
            <mxPoint x="470" y="570" as="targetPoint" />
          </mxGeometry>
        </mxCell>
        <mxCell id="zHXb9KJll9ETnAXT00RL-19" value="" style="html=1;shadow=0;dashed=0;align=center;verticalAlign=middle;shape=mxgraph.arrows2.arrow;dy=0.48;dx=12.67;direction=south;notch=0;fillColor=#e51400;fontColor=#ffffff;strokeColor=#B20000;" vertex="1" parent="1">
          <mxGeometry x="270" y="500" width="20" height="20" as="geometry" />
        </mxCell>
        <mxCell id="zHXb9KJll9ETnAXT00RL-20" value="" style="html=1;shadow=0;dashed=0;align=center;verticalAlign=middle;shape=mxgraph.arrows2.arrow;dy=0.48;dx=12.67;direction=south;notch=0;fillColor=#e51400;fontColor=#ffffff;strokeColor=#B20000;" vertex="1" parent="1">
          <mxGeometry x="510" y="500" width="20" height="20" as="geometry" />
        </mxCell>
        <mxCell id="zHXb9KJll9ETnAXT00RL-21" value="間違った対応" style="rounded=1;whiteSpace=wrap;html=1;fillColor=#e51400;fontColor=#ffffff;strokeColor=#B20000;" vertex="1" parent="1">
          <mxGeometry x="230" y="520" width="100" height="25" as="geometry" />
        </mxCell>
        <mxCell id="zHXb9KJll9ETnAXT00RL-22" value="対応の遅れ" style="rounded=1;whiteSpace=wrap;html=1;fillColor=#e51400;fontColor=#ffffff;strokeColor=#B20000;" vertex="1" parent="1">
          <mxGeometry x="470" y="520" width="100" height="25" as="geometry" />
        </mxCell>
      </root>
    </mxGraphModel>
  </diagram>
</mxfile>
